<?xml version="1.0" standalone="no"?>
<!DOCTYPE svg PUBLIC "-//W3C//DTD SVG 20010904//EN"
 "http://www.w3.org/TR/2001/REC-SVG-20010904/DTD/svg10.dtd">
<svg version="1.0" xmlns="http://www.w3.org/2000/svg"
 width="217.000000pt" height="480.000000pt" viewBox="0 0 217.000000 480.000000"
 preserveAspectRatio="xMidYMid meet">

<g transform="translate(0.000000,480.000000) scale(0.100000,-0.100000)"
fill="#000000" stroke="none">
<path d="M1155 3774 c-150 -22 -344 -78 -450 -131 -160 -80 -332 -229 -433
-376 -104 -150 -180 -342 -219 -547 -24 -132 -29 -477 -9 -620 65 -443 261
-758 596 -960 372 -224 956 -235 1458 -28 l52 22 0 203 c0 112 -2 203 -5 203
-3 0 -45 -20 -94 -44 -121 -61 -282 -113 -425 -138 -157 -26 -377 -22 -501 11
-355 94 -577 386 -624 819 -63 590 150 1032 564 1171 283 94 677 51 996 -110
43 -21 81 -39 84 -39 3 0 5 92 5 204 l0 204 -72 30 c-99 41 -192 69 -328 99
-101 22 -143 26 -340 28 -124 2 -238 1 -255 -1z"/>
</g>
</svg>
